# xmcd
#
# Track frame offsets:
#	183
#	21043
#	40295
#	61408
#	79115
#	99058
#	118045
#	139698
#	158180
#	176948
#
# Disc length: 2438 seconds
#
# Revision: 2
# Processed by: cddbd v1.5.2PL0 Copyright (c) Steve Scherf et al.
# Submitted via: EZCDDA 4.3.2
#
DISCID=7c09840a
DTITLE=Pino Daniele - Ferryboat
DYEAR=1985
DGENRE=Blues
TTITLE0=Ferry- Boat - Pino Daniele
TTITLE1=Bona Jurnata - Pino Daniele
TTITLE2=Sarà - Pino Daniele
TTITLE3=' A Rrobba Mia - Pino Daniele
TTITLE4=Che Ore So' - Pino Daniele
TTITLE5=One - Pino Daniele
TTITLE6=Amico Mio - Pino Daniele
TTITLE7=Dance Of Baia - Pino Daniele
TTITLE8=O' Tiempo Vola - Pino Daniele
TTITLE9=Quaccosa - Pino Daniele
EXTD=
EXTT0=
EXTT1=
EXTT2=
EXTT3=
EXTT4=
EXTT5=
EXTT6=
EXTT7=
EXTT8=
EXTT9=
PLAYORDER=
